<svg xmlns="http://www.w3.org/2000/svg" xmlns:xlink="http://www.w3.org/1999/xlink" width="400" zoomAndPan="magnify" viewBox="0 0 300 74.999997" height="100" preserveAspectRatio="xMidYMid meet" version="1.2"><g id="c0153c1762"><path style=" stroke:none;fill-rule:nonzero;fill:#4b2e2b;fill-opacity:1;" d="M 27.070312 25.351562 L 23.773438 25.351562 C 23.1875 23.425781 22.679688 20.601562 23.773438 17.800781 C 24.808594 15.140625 26.515625 14.457031 27.722656 12.113281 C 28.699219 10.207031 29.402344 7.097656 27.722656 1.980469 L 31.402344 1.980469 C 33.128906 7.132812 32.433594 10.214844 31.402344 12.113281 C 30.097656 14.507812 28.199219 15.097656 27.070312 17.800781 C 25.9375 20.523438 26.441406 23.347656 27.070312 25.351562 Z M 27.070312 25.351562 "/><path style=" stroke:none;fill-rule:nonzero;fill:#4b2e2b;fill-opacity:1;" d="M 33.636719 25.351562 L 30.335938 25.351562 C 29.75 23.425781 29.246094 20.601562 30.335938 17.800781 C 31.375 15.140625 33.082031 14.457031 34.289062 12.113281 C 35.265625 10.207031 35.964844 7.097656 34.289062 1.980469 L 37.96875 1.980469 C 39.691406 7.132812 39 10.214844 37.96875 12.113281 C 36.664062 14.507812 34.761719 15.097656 33.636719 17.800781 C 32.503906 20.523438 33.007812 23.347656 33.636719 25.351562 Z M 33.636719 25.351562 "/><path style=" stroke:none;fill-rule:nonzero;fill:#ff6f00;fill-opacity:1;" d="M 44.476562 57.402344 L 44.476562 53.023438 C 48.519531 52.894531 51.542969 49.726562 51.527344 46.40625 C 51.511719 42.367188 47.003906 39.046875 44.066406 40.027344 C 42.304688 40.617188 41.480469 42.636719 41.203125 43.4375 C 41.203125 43.4375 41.203125 53.917969 41.203125 60.238281 C 40.734375 61.921875 38.5625 68.996094 32.09375 71.824219 C 30.800781 72.386719 29.53125 72.699219 28.347656 72.851562 L 17.546875 72.851562 L 17.546875 35.3125 L 44.066406 35.3125 C 50.835938 34.664062 56.605469 40.074219 56.566406 46.40625 C 56.53125 52.542969 51.050781 57.796875 44.476562 57.402344 Z M 44.476562 57.402344 "/><path style=" stroke:none;fill-rule:nonzero;fill:#4b2e2b;fill-opacity:1;" d="M 10.984375 35.324219 C 12.09375 35.324219 13.164062 35.324219 14.265625 35.324219 C 14.265625 47.863281 14.265625 60.367188 14.265625 72.921875 C 13.164062 72.921875 12.101562 72.921875 10.984375 72.921875 C 10.984375 60.402344 10.984375 47.898438 10.984375 35.324219 Z M 10.984375 35.324219 "/><path style=" stroke:none;fill-rule:nonzero;fill:#4b2e2b;fill-opacity:1;" d="M 44.585938 28.632812 C 44.59375 28.796875 44.609375 28.9375 44.609375 29.082031 C 44.609375 30.011719 44.609375 30.941406 44.609375 31.914062 C 35.59375 31.914062 26.601562 31.914062 17.535156 31.914062 C 17.535156 30.851562 17.535156 29.773438 17.535156 28.632812 C 26.507812 28.632812 35.515625 28.632812 44.585938 28.632812 Z M 44.585938 28.632812 "/><path style=" stroke:none;fill-rule:nonzero;fill:#4b2e2b;fill-opacity:1;" d="M 12.695312 34.53125 C 12.605469 34.53125 12.519531 34.539062 12.433594 34.53125 C 11.410156 34.425781 10.597656 33.804688 10.011719 32.664062 C 9.660156 31.984375 9.480469 31.21875 9.46875 30.390625 C 9.449219 29.1875 9.753906 28.148438 10.375 27.285156 C 10.734375 26.78125 11.167969 26.429688 11.664062 26.214844 C 11.824219 26.144531 11.96875 26.179688 12.105469 26.320312 C 12.375 26.601562 12.527344 26.988281 12.613281 27.425781 C 12.75 28.132812 12.71875 28.839844 12.570312 29.535156 C 12.488281 29.90625 12.375 30.261719 12.289062 30.628906 C 12.097656 31.429688 12.035156 32.25 12.160156 33.085938 C 12.242188 33.617188 12.402344 34.097656 12.679688 34.496094 C 12.6875 34.503906 12.691406 34.511719 12.695312 34.523438 C 12.695312 34.523438 12.695312 34.527344 12.695312 34.53125 Z M 12.695312 34.53125 "/><path style=" stroke:none;fill-rule:nonzero;fill:#4b2e2b;fill-opacity:1;" d="M 12.535156 26.019531 C 12.75 26.007812 12.953125 26.023438 13.148438 26.074219 C 14.261719 26.363281 15.070312 27.199219 15.515625 28.601562 C 15.96875 30.039062 15.847656 31.4375 15.195312 32.730469 C 14.808594 33.492188 14.273438 34.007812 13.628906 34.316406 C 13.378906 34.4375 13.191406 34.335938 13.019531 34.097656 C 12.777344 33.765625 12.652344 33.355469 12.589844 32.90625 C 12.496094 32.261719 12.535156 31.625 12.671875 31 C 12.75 30.632812 12.863281 30.28125 12.949219 29.917969 C 13.140625 29.117188 13.203125 28.304688 13.074219 27.476562 C 12.996094 26.941406 12.835938 26.457031 12.554688 26.054688 C 12.550781 26.046875 12.550781 26.039062 12.535156 26.019531 Z M 12.535156 26.019531 "/><path style=" stroke:none;fill-rule:nonzero;fill:#4b2e2b;fill-opacity:1;" d="M 59.335938 70.5625 L 59.335938 36.710938 C 59.335938 36.035156 59.660156 35.699219 60.304688 35.699219 L 65.527344 35.699219 C 66.140625 35.699219 66.449219 36.035156 66.449219 36.710938 L 66.449219 70.5625 C 66.449219 71.207031 66.140625 71.53125 65.527344 71.53125 L 60.304688 71.53125 C 59.660156 71.53125 59.335938 71.207031 59.335938 70.5625 Z M 59.335938 70.5625 "/><path style=" stroke:none;fill-rule:nonzero;fill:#4b2e2b;fill-opacity:1;" d="M 75.496094 54.820312 L 91.265625 54.820312 C 91.617188 54.820312 91.925781 54.933594 92.183594 55.15625 C 92.441406 55.382812 92.570312 55.683594 92.570312 56.066406 L 92.570312 59.46875 C 92.570312 59.785156 92.449219 60.089844 92.207031 60.378906 C 91.964844 60.667969 91.648438 60.8125 91.261719 60.8125 L 75.492188 60.8125 C 74.652344 60.8125 74.234375 60.363281 74.234375 59.46875 L 74.234375 56.066406 C 74.238281 55.238281 74.65625 54.820312 75.496094 54.820312 Z M 75.496094 54.820312 "/><path style=" stroke:none;fill-rule:nonzero;fill:#ff6f00;fill-opacity:1;" d="M 122.851562 63.175781 C 123.496094 62.691406 124.011719 62.691406 124.398438 63.175781 L 126.816406 67.28125 C 127.078125 67.570312 127.171875 67.820312 127.109375 68.03125 C 127.042969 68.238281 126.867188 68.457031 126.578125 68.679688 C 125.1875 69.710938 123.640625 70.53125 121.933594 71.144531 C 120.222656 71.757812 118.273438 72.0625 116.082031 72.0625 C 113.53125 72.0625 111.128906 71.578125 108.871094 70.613281 C 106.613281 69.648438 104.640625 68.328125 102.945312 66.652344 C 101.253906 64.980469 99.921875 63.015625 98.957031 60.761719 C 97.988281 58.507812 97.503906 56.109375 97.503906 53.566406 C 97.503906 50.992188 97.988281 48.59375 98.957031 46.371094 C 99.921875 44.152344 101.253906 42.203125 102.945312 40.527344 C 104.636719 38.855469 106.613281 37.542969 108.871094 36.59375 C 111.128906 35.644531 113.53125 35.167969 116.082031 35.167969 C 118.273438 35.167969 120.222656 35.464844 121.933594 36.0625 C 123.640625 36.65625 125.203125 37.46875 126.625 38.5 C 126.882812 38.726562 127.011719 38.953125 127.011719 39.175781 C 127.011719 39.402344 126.980469 39.578125 126.914062 39.707031 L 124.347656 44.054688 C 124.058594 44.441406 123.609375 44.457031 122.992188 44.101562 C 121.863281 43.394531 120.761719 42.847656 119.679688 42.460938 C 118.601562 42.074219 117.398438 41.882812 116.078125 41.882812 C 114.433594 41.882812 112.914062 42.179688 111.527344 42.773438 C 110.140625 43.371094 108.941406 44.199219 107.925781 45.261719 C 106.910156 46.324219 106.109375 47.5625 105.53125 48.980469 C 104.949219 50.394531 104.660156 51.925781 104.660156 53.566406 C 104.660156 55.207031 104.949219 56.746094 105.53125 58.179688 C 106.109375 59.613281 106.910156 60.867188 107.925781 61.945312 C 108.941406 63.023438 110.140625 63.875 111.527344 64.503906 C 112.914062 65.132812 114.429688 65.449219 116.078125 65.449219 C 117.398438 65.449219 118.648438 65.230469 119.824219 64.796875 C 121.003906 64.359375 122.011719 63.820312 122.851562 63.175781 Z M 122.851562 63.175781 "/><path style=" stroke:none;fill-rule:nonzero;fill:#ff6f00;fill-opacity:1;" d="M 166.339844 53.613281 C 166.339844 56.15625 165.855469 58.546875 164.886719 60.785156 C 163.921875 63.023438 162.597656 64.972656 160.921875 66.628906 C 159.242188 68.289062 157.277344 69.597656 155.019531 70.5625 C 152.761719 71.53125 150.359375 72.011719 147.8125 72.011719 C 145.265625 72.011719 142.867188 71.527344 140.628906 70.5625 C 138.386719 69.597656 136.433594 68.289062 134.773438 66.628906 C 133.113281 64.972656 131.808594 63.023438 130.855469 60.785156 C 129.90625 58.546875 129.429688 56.15625 129.429688 53.613281 C 129.429688 51.039062 129.902344 48.632812 130.855469 46.394531 C 131.808594 44.160156 133.113281 42.210938 134.773438 40.550781 C 136.433594 38.894531 138.386719 37.582031 140.628906 36.617188 C 142.867188 35.652344 145.265625 35.167969 147.8125 35.167969 C 150.359375 35.167969 152.761719 35.652344 155.019531 36.617188 C 157.277344 37.582031 159.246094 38.894531 160.921875 40.550781 C 162.597656 42.210938 163.921875 44.160156 164.886719 46.394531 C 165.855469 48.632812 166.339844 51.039062 166.339844 53.613281 Z M 159.230469 53.613281 C 159.230469 51.972656 158.9375 50.441406 158.359375 49.027344 C 157.777344 47.609375 156.980469 46.378906 155.964844 45.332031 C 154.949219 44.285156 153.746094 43.457031 152.359375 42.84375 C 150.972656 42.234375 149.457031 41.929688 147.8125 41.929688 C 146.199219 41.929688 144.699219 42.234375 143.3125 42.84375 C 141.925781 43.457031 140.726562 44.285156 139.710938 45.332031 C 138.691406 46.378906 137.902344 47.609375 137.339844 49.027344 C 136.773438 50.441406 136.492188 51.972656 136.492188 53.613281 C 136.492188 55.222656 136.773438 56.738281 137.339844 58.152344 C 137.902344 59.570312 138.695312 60.800781 139.710938 61.847656 C 140.726562 62.894531 141.925781 63.722656 143.3125 64.332031 C 144.699219 64.945312 146.199219 65.25 147.8125 65.25 C 149.457031 65.25 150.972656 64.945312 152.359375 64.332031 C 153.746094 63.722656 154.949219 62.894531 155.964844 61.847656 C 156.980469 60.800781 157.777344 59.570312 158.359375 58.152344 C 158.9375 56.738281 159.230469 55.222656 159.230469 53.613281 Z M 159.230469 53.613281 "/><path style=" stroke:none;fill-rule:nonzero;fill:#ff6f00;fill-opacity:1;" d="M 172.480469 70.5625 L 172.480469 36.664062 C 172.480469 36.019531 172.789062 35.699219 173.402344 35.699219 L 196.570312 35.699219 C 197.214844 35.699219 197.539062 36.019531 197.539062 36.664062 L 197.539062 41.347656 C 197.539062 41.992188 197.214844 42.3125 196.570312 42.3125 L 179.542969 42.3125 L 179.542969 51.777344 L 192.554688 51.777344 C 193.167969 51.777344 193.472656 52.097656 193.472656 52.742188 L 193.472656 57.1875 C 193.472656 57.832031 193.167969 58.152344 192.554688 58.152344 L 179.542969 58.152344 L 179.542969 70.5625 C 179.542969 71.207031 179.222656 71.53125 178.578125 71.53125 L 173.402344 71.53125 C 172.789062 71.53125 172.480469 71.207031 172.480469 70.5625 Z M 172.480469 70.5625 "/><path style=" stroke:none;fill-rule:nonzero;fill:#ff6f00;fill-opacity:1;" d="M 202.8125 70.5625 L 202.8125 36.664062 C 202.8125 36.019531 203.121094 35.699219 203.730469 35.699219 L 226.902344 35.699219 C 227.546875 35.699219 227.871094 36.019531 227.871094 36.664062 L 227.871094 41.347656 C 227.871094 41.992188 227.546875 42.3125 226.902344 42.3125 L 209.875 42.3125 L 209.875 51.777344 L 222.886719 51.777344 C 223.5 51.777344 223.804688 52.097656 223.804688 52.742188 L 223.804688 57.1875 C 223.804688 57.832031 223.5 58.152344 222.886719 58.152344 L 209.875 58.152344 L 209.875 70.5625 C 209.875 71.207031 209.550781 71.53125 208.90625 71.53125 L 203.730469 71.53125 C 203.121094 71.53125 202.8125 71.207031 202.8125 70.5625 Z M 202.8125 70.5625 "/><path style=" stroke:none;fill-rule:nonzero;fill:#ff6f00;fill-opacity:1;" d="M 233.144531 70.5625 L 233.144531 36.664062 C 233.144531 36.019531 233.453125 35.699219 234.0625 35.699219 L 257.71875 35.699219 C 258.363281 35.699219 258.6875 36.019531 258.6875 36.664062 L 258.6875 41.347656 C 258.6875 41.992188 258.363281 42.3125 257.71875 42.3125 L 240.207031 42.3125 L 240.207031 49.605469 L 253.558594 49.605469 C 254.269531 49.605469 254.625 49.925781 254.625 50.570312 L 254.625 55.160156 C 254.625 55.804688 254.269531 56.125 253.558594 56.125 L 240.207031 56.125 L 240.207031 64.964844 L 258.15625 64.964844 C 258.832031 64.964844 259.171875 65.285156 259.171875 65.929688 L 259.171875 70.566406 C 259.171875 71.210938 258.832031 71.53125 258.15625 71.53125 L 234.066406 71.53125 C 233.449219 71.53125 233.144531 71.207031 233.144531 70.5625 Z M 233.144531 70.5625 "/><path style=" stroke:none;fill-rule:nonzero;fill:#ff6f00;fill-opacity:1;" d="M 264.199219 70.5625 L 264.199219 36.664062 C 264.199219 36.019531 264.507812 35.699219 265.117188 35.699219 L 288.773438 35.699219 C 289.417969 35.699219 289.742188 36.019531 289.742188 36.664062 L 289.742188 41.347656 C 289.742188 41.992188 289.417969 42.3125 288.773438 42.3125 L 271.261719 42.3125 L 271.261719 49.605469 L 284.613281 49.605469 C 285.324219 49.605469 285.679688 49.925781 285.679688 50.570312 L 285.679688 55.160156 C 285.679688 55.804688 285.324219 56.125 284.613281 56.125 L 271.261719 56.125 L 271.261719 64.964844 L 289.210938 64.964844 C 289.886719 64.964844 290.226562 65.285156 290.226562 65.929688 L 290.226562 70.566406 C 290.226562 71.210938 289.886719 71.53125 289.210938 71.53125 L 265.121094 71.53125 C 264.507812 71.53125 264.199219 71.207031 264.199219 70.5625 Z M 264.199219 70.5625 "/></g></svg>